<svg width="899" height="692" viewBox="0 0 899 692" fill="none" xmlns="http://www.w3.org/2000/svg">
<path d="M465.885 531.426C448.17 527.994 413.839 520.477 413.839 520.477L364.058 508.368C364.058 508.368 328.19 504.236 306.984 495.815C301.218 493.525 297.474 493.003 292.489 489.311C289.056 486.769 286.619 485.42 284.753 481.575C283.109 478.188 282.992 475.814 283.223 472.054C283.558 466.589 285.451 463.613 288.487 459.053C291.457 454.592 293.73 452.319 298.19 449.35C302.751 446.314 305.885 445.442 311.191 444.085C321.18 441.532 327.353 442.976 337.581 444.219C348.535 445.551 364.986 451.075 364.986 451.075L555.256 480.696L564.369 479.19C564.369 479.19 567.9 477.677 569.747 474.689C570.576 473.349 570.173 469.149 569.114 467.985C566.127 464.702 565.43 464.776 561.764 463.207C554.642 460.159 541.8 455.512 541.8 455.512L513.861 446.98L520.049 446.318L534.306 445.247L545.905 444.776L564.395 447.284L583.42 451.468C583.42 451.468 593.379 452.477 599.7 451.766C603.483 451.341 605.936 451.76 609.276 449.926L609.447 449.832C612.404 448.21 614.713 446.943 615.554 443.648C616.541 439.781 612.471 436.074 609.271 433.696C603.899 429.705 598.42 429.709 598.42 429.709C594.261 428.714 591.265 427.717 587.269 427.221C583.274 426.725 572.623 424.689 572.623 424.689L534.828 418.273L526.728 415.325L536.33 413.312L547.538 413.303L609.287 414.549L618.274 414.404C618.274 414.404 623.74 412.711 625.746 410.705C628.198 408.253 629.377 406.439 629.69 402.988C629.926 400.378 628.475 399.005 626.981 396.855C624.144 392.77 621.081 391.484 616.428 389.726C611.282 387.781 602.413 388.268 602.413 388.268L561.953 390.046L526.023 389.505L522.707 386.19L527.274 381.623L594.307 373.267C594.307 373.267 598.984 371.561 602.43 367.766C603.701 366.365 603.953 364.302 603.955 362.412C603.958 358.274 601.683 356.045 598.483 353.516C594.125 350.071 584.486 350.935 584.486 350.935L482.684 361.007L476.533 359.422L471.56 354.449L473.345 348.243L485.902 335.685L517.866 303.721C517.866 303.721 518.856 300.104 517.957 298.104C517.206 296.434 517.243 296.203 515.948 294.908C514.654 293.613 512.876 292.448 511.326 291.473C509.582 290.377 508.345 290.113 506.298 289.87C503.886 289.584 500.11 290.532 500.11 290.532L487.037 300.29L462.584 319.217L408.577 359.961L393.166 375.372C393.166 375.372 366.096 347.2 348.995 328.918C324.996 303.261 301.322 294.739 287.302 262.517C285.164 257.604 284.055 255.045 283.56 249.679C283.157 245.31 283.067 241.762 284.741 238.445C286.161 235.631 286.841 233.792 289.07 231.563C291.745 228.888 293.182 228.176 296.194 225.888C299.6 223.301 301.634 221.519 305.825 220.678C308.407 220.16 309.935 220.471 312.565 220.569C316.087 220.7 317.864 221.036 321.046 222.545C328.037 225.862 329.345 228.344 334.524 233.524C344.667 243.666 360.768 260.781 360.768 260.781L401.107 301.12L414.922 314.935L421.608 318.196L424.462 315.342L425.105 310.278L418.474 303.647L404.769 283.091L388.798 263.696L362.456 225.938C362.456 225.938 336.653 198.667 325.614 177.681C322.593 171.937 319.877 168.99 318.558 162.633C317.31 156.621 316.74 152.692 318.812 146.906L318.903 146.653C320.265 142.85 321.117 140.471 323.615 137.208C327.447 132.202 330.065 128.904 336.111 127.125C340.11 125.949 342.593 125.871 346.654 126.801C351.094 127.818 357.244 131.683 357.244 131.683C357.244 131.683 366.219 138.281 369.067 141.113C374.058 146.075 374.016 147.038 379.047 153.564C384.256 160.319 391.414 171.561 391.414 171.561L413.942 202.081L449.624 252.603L461.727 268.13L467.344 268.039L466.864 262.993L457.67 241.242L440.205 210.079L415.612 168.361C415.612 168.361 402.956 150.558 401.517 137.143L401.495 136.936C400.785 130.319 400.344 126.209 402.361 119.722L402.472 119.363C403.967 114.548 404.996 111.234 409.283 108.379C411.981 106.582 418.343 103.74 418.343 103.74C418.343 103.74 425.512 101.088 431.289 101.845C435.554 102.405 437.703 103.939 441.327 106.175C447.05 109.707 453.484 118.332 453.484 118.332L465.478 137.09L474.228 155.058L497.698 196.793L516.747 234.108L522.201 244.128L525.516 247.443L532.827 246.763L532.366 240.594L523.281 212.102C523.281 212.102 508.402 177.433 507.376 153.959C507.18 149.463 507.41 146.544 509.805 142.689C512.249 138.755 515.043 137.393 519.124 135.402L519.472 135.233C524.17 132.939 527.318 131.696 532.436 132.215C539.075 132.887 542.142 136.403 546.895 140.965C552.076 145.941 556.75 156.529 556.75 156.529L570.772 192.241L609.849 275.839L633.799 322.621L660.014 368.243C660.014 368.243 670.36 388.651 671.807 402.867C672.701 411.645 672.045 416.766 670.941 425.377L670.873 425.905C669.375 437.598 668.131 444.31 663.659 455.223C659.696 464.896 656.371 469.901 650.368 478.461C641.673 490.859 635.19 496.679 624.075 506.964L623.489 507.506C615.012 515.353 610.013 519.979 600.175 526.444C591.366 532.231 586.415 535.958 576.384 539.183C565.228 542.769 558.275 542.099 546.568 542.474C533.847 542.88 526.544 543.037 514.027 540.754C514.024 540.754 514.021 540.753 514.019 540.753C527.115 543.292 513.083 540.583 514.019 540.753C513.204 540.595 512.284 540.417 511.249 540.216L465.885 531.426Z" fill="#D395C4"/>
<path d="M465.885 531.426C448.17 527.994 413.839 520.477 413.839 520.477L364.058 508.368C364.058 508.368 328.19 504.236 306.984 495.815C301.218 493.525 297.474 493.003 292.489 489.311C289.056 486.769 286.619 485.42 284.753 481.575C283.109 478.188 282.992 475.814 283.223 472.054C283.558 466.589 285.451 463.613 288.487 459.053C291.457 454.592 293.73 452.319 298.19 449.35C302.751 446.314 305.885 445.442 311.191 444.085C321.18 441.532 327.353 442.976 337.581 444.219C348.535 445.551 364.986 451.075 364.986 451.075L555.256 480.696L564.369 479.19C564.369 479.19 567.9 477.677 569.747 474.689C570.576 473.349 570.173 469.149 569.114 467.985C566.127 464.702 565.43 464.776 561.764 463.207C554.642 460.159 541.8 455.512 541.8 455.512L513.861 446.98L520.049 446.318L534.306 445.247L545.905 444.776L564.395 447.284L583.42 451.468C583.42 451.468 593.379 452.477 599.7 451.766C603.483 451.341 605.936 451.76 609.276 449.926L609.447 449.832C612.404 448.21 614.713 446.943 615.554 443.648C616.541 439.781 612.471 436.074 609.271 433.696C603.899 429.705 598.42 429.709 598.42 429.709C594.261 428.714 591.265 427.717 587.269 427.221C583.274 426.725 572.623 424.689 572.623 424.689L534.828 418.273L526.728 415.325L536.33 413.312L547.538 413.303L609.287 414.549L618.274 414.404C618.274 414.404 623.74 412.711 625.746 410.705C628.198 408.253 629.377 406.439 629.69 402.988C629.926 400.378 628.475 399.005 626.981 396.855C624.144 392.77 621.081 391.484 616.428 389.726C611.282 387.781 602.413 388.268 602.413 388.268L561.953 390.046L526.023 389.505L522.707 386.19L527.274 381.623L594.307 373.267C594.307 373.267 598.984 371.561 602.43 367.766C603.701 366.365 603.953 364.302 603.955 362.412C603.958 358.274 601.683 356.045 598.483 353.516C594.125 350.071 584.486 350.935 584.486 350.935L482.684 361.007L476.533 359.422L471.56 354.449L473.345 348.243L485.902 335.685L517.866 303.721C517.866 303.721 518.856 300.104 517.957 298.104C517.206 296.434 517.243 296.203 515.948 294.908C514.654 293.613 512.876 292.448 511.326 291.473C509.582 290.377 508.345 290.113 506.298 289.87C503.886 289.584 500.11 290.532 500.11 290.532L487.037 300.29L462.584 319.217L408.577 359.961L393.166 375.372C393.166 375.372 366.096 347.2 348.995 328.918C324.996 303.261 301.322 294.739 287.302 262.517C285.164 257.604 284.055 255.045 283.56 249.679C283.157 245.31 283.067 241.762 284.741 238.445C286.161 235.631 286.841 233.792 289.07 231.563C291.745 228.888 293.182 228.176 296.194 225.888C299.6 223.301 301.634 221.519 305.825 220.678C308.407 220.16 309.935 220.471 312.565 220.569C316.087 220.7 317.864 221.036 321.046 222.545C328.037 225.862 329.345 228.344 334.524 233.524C344.667 243.666 360.768 260.781 360.768 260.781L401.107 301.12L414.922 314.935L421.608 318.196L424.462 315.342L425.105 310.278L418.474 303.647L404.769 283.091L388.798 263.696L362.456 225.938C362.456 225.938 336.653 198.667 325.614 177.681C322.593 171.937 319.877 168.99 318.558 162.633C317.31 156.621 316.74 152.692 318.812 146.906L318.903 146.653C320.265 142.85 321.117 140.471 323.615 137.208C327.447 132.202 330.065 128.904 336.111 127.125C340.11 125.949 342.593 125.871 346.654 126.801C351.094 127.818 357.244 131.683 357.244 131.683C357.244 131.683 366.219 138.281 369.067 141.113C374.058 146.075 374.016 147.038 379.047 153.564C384.256 160.319 391.414 171.561 391.414 171.561L413.942 202.081L449.624 252.603L461.727 268.13L467.344 268.039L466.864 262.993L457.67 241.242L440.205 210.079L415.612 168.361C415.612 168.361 402.956 150.558 401.517 137.143L401.495 136.936C400.785 130.319 400.344 126.209 402.361 119.722L402.472 119.363C403.967 114.548 404.996 111.234 409.283 108.379C411.981 106.582 418.343 103.74 418.343 103.74C418.343 103.74 425.512 101.088 431.289 101.845C435.554 102.405 437.703 103.939 441.327 106.175C447.05 109.707 453.484 118.332 453.484 118.332L465.478 137.09L474.228 155.058L497.698 196.793L516.747 234.108L522.201 244.128L525.516 247.443L532.827 246.763L532.366 240.594L523.281 212.102C523.281 212.102 508.402 177.433 507.376 153.959C507.18 149.463 507.41 146.544 509.805 142.689C512.249 138.755 515.043 137.393 519.124 135.402L519.472 135.233C524.17 132.939 527.318 131.696 532.436 132.215C539.075 132.887 542.142 136.403 546.895 140.965C552.076 145.941 556.75 156.529 556.75 156.529L570.772 192.241L609.849 275.839L633.799 322.621L660.014 368.243C660.014 368.243 670.36 388.651 671.807 402.867C672.701 411.645 672.045 416.766 670.941 425.377L670.873 425.905C669.375 437.598 668.131 444.31 663.659 455.223C659.696 464.896 656.371 469.901 650.368 478.461C641.673 490.859 635.19 496.679 624.075 506.964L623.489 507.506C615.012 515.353 610.013 519.979 600.175 526.444C591.366 532.231 586.415 535.958 576.384 539.183C565.228 542.769 558.275 542.099 546.568 542.474C533.847 542.88 526.544 543.037 514.027 540.754C514.024 540.754 514.021 540.753 514.019 540.753C527.115 543.292 513.083 540.583 514.019 540.753C513.204 540.595 512.284 540.417 511.249 540.216L465.885 531.426Z" fill="url(#paint0_linear)"/>
<path d="M494.951 420.076C491.945 424.955 470.754 423.885 447.62 417.686C424.486 411.488 408.17 402.507 411.176 397.629C414.183 392.75 435.373 393.82 458.507 400.018C481.641 406.217 497.957 415.197 494.951 420.076Z" fill="#9EF4C4"/>
<path d="M494.951 420.076C491.945 424.955 470.754 423.885 447.62 417.686C424.486 411.488 408.17 402.507 411.176 397.629C414.183 392.75 435.373 393.82 458.507 400.018C481.641 406.217 497.957 415.197 494.951 420.076Z" stroke="#B4D4CC"/>
<path d="M403.668 409.813L411.176 397.629C450.109 413.647 450.109 413.647 494.951 420.076L487.443 432.261C487.443 432.261 459.637 429.434 443.19 425.027C426.743 420.62 403.668 409.813 403.668 409.813Z" fill="#4CAA96"/>
<path d="M413.596 398.472L405.948 410.883" stroke="#B4D4CC"/>
<path d="M416.013 399.61L408.366 412.02" stroke="#B4D4CC"/>
<path d="M418.546 400.779L410.899 413.189" stroke="#B4D4CC"/>
<path d="M421.079 401.948L413.432 414.358" stroke="#B4D4CC"/>
<path d="M423.872 402.696L416.225 415.106" stroke="#B4D4CC"/>
<path d="M426.405 403.865L418.758 416.275" stroke="#B4D4CC"/>
<path d="M428.938 405.034L421.292 417.444" stroke="#B4D4CC"/>
<path d="M431.472 406.203L423.825 418.613" stroke="#B4D4CC"/>
<path d="M434.264 406.951L426.617 419.361" stroke="#B4D4CC"/>
<path d="M436.797 408.12L429.151 420.53" stroke="#B4D4CC"/>
<path d="M440.055 408.993L432.408 421.403" stroke="#B4D4CC"/>
<path d="M443.519 410.412L435.872 422.821" stroke="#B4D4CC"/>
<path d="M447.243 411.409L439.596 423.819" stroke="#B4D4CC"/>
<path d="M450.966 412.407L443.319 424.816" stroke="#B4D4CC"/>
<path d="M454.224 413.28L446.577 425.689" stroke="#B4D4CC"/>
<path d="M458.413 414.402L450.766 426.812" stroke="#B4D4CC"/>
<path d="M462.395 414.979L454.748 427.389" stroke="#B4D4CC"/>
<path d="M466.119 415.977L458.472 428.386" stroke="#B4D4CC"/>
<path d="M470.101 416.554L462.454 428.963" stroke="#B4D4CC"/>
<path d="M474.084 417.131L466.437 429.54" stroke="#B4D4CC"/>
<path d="M478.066 417.708L470.419 430.117" stroke="#B4D4CC"/>
<path d="M482.308 417.864L474.661 430.274" stroke="#B4D4CC"/>
<path d="M486.29 418.441L478.644 430.851" stroke="#B4D4CC"/>
<path d="M490.273 419.018L482.626 431.428" stroke="#B4D4CC"/>
<path d="M493.79 419.471L486.143 431.88" stroke="#B4D4CC"/>
<defs>
<linearGradient id="paint0_linear" x1="282.109" y1="178.109" x2="617.519" y2="513.519" gradientUnits="userSpaceOnUse">
<stop offset="0.413947" stop-color="#81D5DC"/>
<stop offset="1" stop-color="white" stop-opacity="0"/>
</linearGradient>
</defs>
</svg>
