<svg width="359" height="138" viewBox="0 0 359 138" fill="none" xmlns="http://www.w3.org/2000/svg">
<path d="M35.1 126.575C37.6 126.575 39.7 126.275 41.4 125.675C43.1 125.075 44.45 124.275 45.45 123.275C46.4833 122.275 47.2167 121.108 47.65 119.775C48.1167 118.441 48.35 117.025 48.35 115.525C48.35 113.958 48.1 112.558 47.6 111.325C47.1 110.058 46.3167 108.991 45.25 108.125C44.1833 107.225 42.8 106.541 41.1 106.075C39.4333 105.608 37.4167 105.375 35.05 105.375H21.5V126.575H35.1ZM21.5 75.1748V96.0748H32.2C36.8 96.0748 40.2667 95.2414 42.6 93.5747C44.9667 91.9081 46.15 89.2581 46.15 85.6248C46.15 81.8581 45.0833 79.1747 42.95 77.5747C40.8167 75.9748 37.4833 75.1748 32.95 75.1748H21.5ZM32.95 64.7747C37.6833 64.7747 41.7333 65.2247 45.1 66.1248C48.4667 67.0247 51.2167 68.3081 53.35 69.9748C55.5167 71.6414 57.1 73.6581 58.1 76.0247C59.1 78.3914 59.6 81.0581 59.6 84.0247C59.6 85.7248 59.35 87.3581 58.85 88.9247C58.35 90.4581 57.5667 91.9081 56.5 93.2748C55.4667 94.6081 54.1333 95.8248 52.5 96.9248C50.9 98.0248 48.9833 98.9581 46.75 99.7248C56.6833 101.958 61.65 107.325 61.65 115.825C61.65 118.891 61.0667 121.725 59.9 124.325C58.7333 126.925 57.0333 129.175 54.8 131.075C52.5667 132.941 49.8167 134.408 46.55 135.475C43.2833 136.541 39.55 137.075 35.35 137.075H8.05V64.7747H32.95ZM83.8414 85.7748V137.075H71.4414V85.7748H83.8414ZM85.5414 70.8248C85.5414 71.8914 85.3247 72.8914 84.8914 73.8247C84.4581 74.7581 83.8747 75.5747 83.1414 76.2747C82.4414 76.9747 81.6081 77.5414 80.6414 77.9748C79.6747 78.3747 78.6414 78.5747 77.5414 78.5747C76.4747 78.5747 75.4581 78.3747 74.4914 77.9748C73.5581 77.5414 72.7414 76.9747 72.0414 76.2747C71.3414 75.5747 70.7747 74.7581 70.3414 73.8247C69.9414 72.8914 69.7414 71.8914 69.7414 70.8248C69.7414 69.7248 69.9414 68.6914 70.3414 67.7247C70.7747 66.7581 71.3414 65.9248 72.0414 65.2248C72.7414 64.5248 73.5581 63.9748 74.4914 63.5748C75.4581 63.1414 76.4747 62.9248 77.5414 62.9248C78.6414 62.9248 79.6747 63.1414 80.6414 63.5748C81.6081 63.9748 82.4414 64.5248 83.1414 65.2248C83.8747 65.9248 84.4581 66.7581 84.8914 67.7247C85.3247 68.6914 85.5414 69.7248 85.5414 70.8248ZM113.532 137.875C109.065 137.875 105.632 136.625 103.232 134.125C100.865 131.591 99.682 128.108 99.682 123.675V95.0248H94.432C93.7654 95.0248 93.1987 94.8081 92.732 94.3748C92.2654 93.9414 92.032 93.2914 92.032 92.4247V87.5247L100.282 86.1748L102.882 72.1747C103.049 71.5081 103.365 70.9914 103.832 70.6247C104.299 70.2581 104.899 70.0748 105.632 70.0748H112.032V86.2247H125.732V95.0248H112.032V122.825C112.032 124.425 112.415 125.675 113.182 126.575C113.982 127.475 115.065 127.925 116.432 127.925C117.199 127.925 117.832 127.841 118.332 127.675C118.865 127.475 119.315 127.275 119.682 127.075C120.082 126.875 120.432 126.691 120.732 126.525C121.032 126.325 121.332 126.225 121.632 126.225C121.999 126.225 122.299 126.325 122.532 126.525C122.765 126.691 123.015 126.958 123.282 127.325L126.982 133.325C125.182 134.825 123.115 135.958 120.782 136.725C118.449 137.491 116.032 137.875 113.532 137.875ZM137.289 137.075V95.0748L132.839 94.3748C131.872 94.1748 131.089 93.8414 130.489 93.3748C129.922 92.8748 129.639 92.1747 129.639 91.2747V86.2247H137.289V84.5747C137.289 81.4414 137.806 78.5414 138.839 75.8747C139.872 73.1747 141.439 70.8414 143.539 68.8747C145.639 66.9081 148.289 65.3747 151.489 64.2747C154.722 63.1414 158.522 62.5747 162.889 62.5747C164.289 62.5747 165.706 62.6581 167.139 62.8248C168.606 62.9581 169.872 63.1914 170.939 63.5247L170.539 69.9248C170.472 70.6914 170.056 71.1581 169.289 71.3247C168.522 71.4581 167.572 71.5247 166.439 71.5247C163.206 71.5247 160.489 71.8081 158.289 72.3748C156.122 72.9414 154.356 73.7914 152.989 74.9248C151.656 76.0248 150.689 77.4248 150.089 79.1248C149.522 80.7914 149.239 82.7414 149.239 84.9748V86.2247H181.039V137.075H168.689V95.0248H149.639V137.075H137.289ZM205.248 92.0748C206.281 91.0414 207.364 90.0914 208.498 89.2248C209.664 88.3248 210.881 87.5748 212.148 86.9747C213.448 86.3414 214.831 85.8581 216.298 85.5248C217.764 85.1581 219.364 84.9748 221.098 84.9748C223.898 84.9748 226.381 85.4581 228.548 86.4248C230.714 87.3581 232.514 88.6914 233.948 90.4248C235.414 92.1248 236.514 94.1748 237.248 96.5747C238.014 98.9414 238.398 101.558 238.398 104.425V137.075H226.048V104.425C226.048 101.291 225.331 98.8748 223.898 97.1748C222.464 95.4414 220.281 94.5748 217.348 94.5748C215.214 94.5748 213.214 95.0581 211.348 96.0248C209.481 96.9914 207.714 98.3081 206.048 99.9748V137.075H193.698V85.7748H201.248C202.848 85.7748 203.898 86.5248 204.398 88.0247L205.248 92.0748ZM286.893 96.6248C286.526 97.0914 286.16 97.4581 285.793 97.7247C285.46 97.9914 284.96 98.1248 284.293 98.1248C283.66 98.1248 283.043 97.9414 282.443 97.5748C281.843 97.1748 281.126 96.7414 280.293 96.2748C279.46 95.7748 278.46 95.3414 277.293 94.9747C276.16 94.5748 274.743 94.3748 273.043 94.3748C270.876 94.3748 268.976 94.7748 267.343 95.5748C265.71 96.3414 264.343 97.4581 263.243 98.9248C262.176 100.391 261.376 102.175 260.843 104.275C260.31 106.341 260.043 108.691 260.043 111.325C260.043 114.058 260.326 116.491 260.893 118.625C261.493 120.758 262.343 122.558 263.443 124.025C264.543 125.458 265.876 126.558 267.443 127.325C269.01 128.058 270.776 128.425 272.743 128.425C274.71 128.425 276.293 128.191 277.493 127.725C278.726 127.225 279.76 126.691 280.593 126.125C281.426 125.525 282.143 124.991 282.743 124.525C283.376 124.025 284.076 123.775 284.843 123.775C285.843 123.775 286.593 124.158 287.093 124.925L290.643 129.425C289.276 131.025 287.793 132.375 286.193 133.475C284.593 134.541 282.926 135.408 281.193 136.075C279.493 136.708 277.726 137.158 275.893 137.425C274.093 137.691 272.293 137.825 270.493 137.825C267.326 137.825 264.343 137.241 261.543 136.075C258.743 134.875 256.293 133.141 254.193 130.875C252.093 128.608 250.426 125.841 249.193 122.575C247.993 119.275 247.393 115.525 247.393 111.325C247.393 107.558 247.926 104.075 248.993 100.875C250.093 97.6414 251.693 94.8581 253.793 92.5248C255.893 90.1581 258.493 88.3081 261.593 86.9747C264.693 85.6414 268.26 84.9748 272.293 84.9748C276.126 84.9748 279.476 85.5914 282.343 86.8248C285.243 88.0581 287.843 89.8248 290.143 92.1248L286.893 96.6248ZM325.485 115.175C321.918 115.341 318.918 115.658 316.485 116.125C314.052 116.558 312.102 117.125 310.635 117.825C309.168 118.525 308.118 119.341 307.485 120.275C306.852 121.208 306.535 122.225 306.535 123.325C306.535 125.491 307.168 127.041 308.435 127.975C309.735 128.908 311.418 129.375 313.485 129.375C316.018 129.375 318.202 128.925 320.035 128.025C321.902 127.091 323.718 125.691 325.485 123.825V115.175ZM297.185 92.9248C303.085 87.5247 310.185 84.8247 318.485 84.8247C321.485 84.8247 324.168 85.3247 326.535 86.3247C328.902 87.2914 330.902 88.6581 332.535 90.4248C334.168 92.1581 335.402 94.2414 336.235 96.6748C337.102 99.1081 337.535 101.775 337.535 104.675V137.075H331.935C330.768 137.075 329.868 136.908 329.235 136.575C328.602 136.208 328.102 135.491 327.735 134.425L326.635 130.725C325.335 131.891 324.068 132.925 322.835 133.825C321.602 134.691 320.318 135.425 318.985 136.025C317.652 136.625 316.218 137.075 314.685 137.375C313.185 137.708 311.518 137.875 309.685 137.875C307.518 137.875 305.518 137.591 303.685 137.025C301.852 136.425 300.268 135.541 298.935 134.375C297.602 133.208 296.568 131.758 295.835 130.025C295.102 128.291 294.735 126.275 294.735 123.975C294.735 122.675 294.952 121.391 295.385 120.125C295.818 118.825 296.518 117.591 297.485 116.425C298.485 115.258 299.768 114.158 301.335 113.125C302.902 112.091 304.818 111.191 307.085 110.425C309.385 109.658 312.052 109.041 315.085 108.575C318.118 108.075 321.585 107.775 325.485 107.675V104.675C325.485 101.241 324.752 98.7081 323.285 97.0748C321.818 95.4081 319.702 94.5748 316.935 94.5748C314.935 94.5748 313.268 94.8081 311.935 95.2748C310.635 95.7414 309.485 96.2748 308.485 96.8748C307.485 97.4414 306.568 97.9581 305.735 98.4247C304.935 98.8914 304.035 99.1247 303.035 99.1247C302.168 99.1247 301.435 98.9081 300.835 98.4748C300.235 98.0081 299.752 97.4748 299.385 96.8748L297.185 92.9248Z" fill="#716B94"/>
<path d="M128.474 9.13118C131.196 14.1742 119.674 31.991 102.738 48.926C85.8034 65.8611 69.8682 75.5016 67.1461 70.4585C64.4241 65.4155 75.9461 47.5988 92.8812 30.6637C109.816 13.7286 125.751 4.08816 128.474 9.13118Z" fill="#9EF4C4"/>
<path d="M128.474 9.13118C131.196 14.1742 119.674 31.991 102.738 48.926C85.8034 65.8611 69.8682 75.5016 67.1461 70.4585C64.4241 65.4155 75.9461 47.5988 92.8812 30.6637C109.816 13.7286 125.751 4.08816 128.474 9.13118Z" stroke="#B4D4CC"/>
<path d="M73.9442 83.0533L67.1461 70.4585C100.485 44.7514 100.485 44.7514 128.473 9.13115L135.272 21.7259C135.272 21.7259 118.92 44.3931 106.88 56.4332C94.8401 68.4733 73.9442 83.0533 73.9442 83.0533Z" fill="#4CAA96"/>
<path d="M69.0862 68.7842L76.0108 81.6132" stroke="#B4D4CC"/>
<path d="M71.2805 67.2609L78.2041 80.088" stroke="#B4D4CC"/>
<path d="M73.5595 65.6515L80.4831 78.4786" stroke="#B4D4CC"/>
<path d="M75.8384 64.042L82.762 76.8692" stroke="#B4D4CC"/>
<path d="M77.8826 61.9978L84.8062 74.8249" stroke="#B4D4CC"/>
<path d="M80.1616 60.3884L87.0851 73.2155" stroke="#B4D4CC"/>
<path d="M82.4405 58.7789L89.3641 71.6061" stroke="#B4D4CC"/>
<path d="M84.7194 57.1695L91.643 69.9966" stroke="#B4D4CC"/>
<path d="M86.7637 55.1252L93.6873 67.9524" stroke="#B4D4CC"/>
<path d="M89.0427 53.5158L95.9663 66.343" stroke="#B4D4CC"/>
<path d="M91.4276 51.1309L98.3512 63.958" stroke="#B4D4CC"/>
<path d="M94.388 48.8401L101.312 61.6672" stroke="#B4D4CC"/>
<path d="M97.1136 46.1143L104.037 58.9415" stroke="#B4D4CC"/>
<path d="M99.8393 43.3887L106.763 56.2158" stroke="#B4D4CC"/>
<path d="M102.224 41.0037L109.148 53.8309" stroke="#B4D4CC"/>
<path d="M105.291 37.9374L112.214 50.7645" stroke="#B4D4CC"/>
<path d="M107.782 34.7769L114.705 47.604" stroke="#B4D4CC"/>
<path d="M110.507 32.0512L117.431 44.8784" stroke="#B4D4CC"/>
<path d="M112.998 28.8908L119.922 41.7179" stroke="#B4D4CC"/>
<path d="M115.489 25.7303L122.413 38.5574" stroke="#B4D4CC"/>
<path d="M117.98 22.5698L124.904 35.3969" stroke="#B4D4CC"/>
<path d="M120.236 18.9745L127.16 31.8017" stroke="#B4D4CC"/>
<path d="M122.727 15.814L129.651 28.6412" stroke="#B4D4CC"/>
<path d="M125.218 12.6536L132.142 25.4807" stroke="#B4D4CC"/>
<path d="M127.369 9.83382L134.292 22.6609" stroke="#B4D4CC"/>
</svg>
