<svg width="1010" height="1010" viewBox="0 0 1010 1010" fill="none" xmlns="http://www.w3.org/2000/svg">
<g filter="url(#filter0_d)">
<path d="M448.785 774.989C448.785 774.989 502.657 786.827 530.457 792.235L601.642 806.085C629.441 811.494 604.294 806.621 606 806.933C625.641 810.53 637.1 810.294 657.058 809.673C675.425 809.101 686.334 810.161 703.832 804.549C719.566 799.502 727.329 793.662 741.142 784.593C756.569 774.463 764.406 767.211 777.696 754.911L778.615 754.062C796.04 737.939 806.204 728.817 819.829 709.376C829.237 695.954 834.447 688.105 840.653 672.934C847.654 655.819 849.597 645.29 851.932 626.947L852.038 626.116C853.759 612.609 854.783 604.575 853.368 590.802C851.078 568.496 834.821 536.463 834.821 536.463L793.631 464.851L755.994 391.422L694.576 260.21L672.53 204.162C672.53 204.162 665.183 187.544 657.047 179.731C649.585 172.566 644.767 167.047 634.351 165.983C626.32 165.163 621.383 167.109 614.015 170.701L613.469 170.967C607.068 174.084 602.687 176.218 598.858 182.388C595.105 188.433 594.747 193.012 595.062 200.067C596.702 236.897 620.091 291.31 620.091 291.31L634.381 336.023L635.113 345.703L623.644 346.761L618.438 341.554L609.869 325.827L579.933 267.258L543.055 201.747L529.303 173.545L510.461 144.099C510.461 144.099 500.355 130.559 491.372 125.01C485.684 121.496 482.309 119.087 475.618 118.204C466.553 117.007 455.308 121.159 455.308 121.159C455.308 121.159 445.331 125.61 441.1 128.425C434.378 132.899 432.768 138.098 430.429 145.65L430.254 146.213C427.099 156.388 427.796 162.837 428.918 173.219L428.953 173.545C431.228 194.594 451.107 222.543 451.107 222.543L489.748 288.027L517.189 336.943L531.642 371.081L532.402 378.999L523.589 379.134L504.581 354.757L448.532 275.444L413.146 227.531C413.146 227.531 401.901 209.884 393.721 199.279C385.818 189.034 385.884 187.523 378.047 179.731C373.574 175.284 359.484 164.921 359.484 164.921C359.484 164.921 349.83 158.849 342.862 157.247C336.49 155.782 332.595 155.901 326.322 157.742C316.838 160.525 312.735 165.696 306.729 173.545C302.814 178.661 301.481 182.392 299.349 188.358L299.207 188.754C295.963 197.829 296.862 203.995 298.828 213.429C300.906 223.405 305.171 228.031 309.918 237.047C327.265 269.988 367.784 312.808 367.784 312.808L409.163 372.082L434.245 402.533L455.775 434.801L466.187 445.213L465.184 453.158L460.71 457.632L450.217 452.507L428.524 430.814L365.182 367.472C365.182 367.472 339.897 340.599 323.971 324.673C315.838 316.54 313.782 312.643 302.81 307.431C297.816 305.059 295.027 304.529 289.502 304.319C285.375 304.163 282.977 303.672 278.927 304.482C272.353 305.796 269.164 308.589 263.824 312.643C259.101 316.229 256.846 317.345 252.653 321.538C249.159 325.032 248.094 327.916 245.87 332.329C243.248 337.531 243.394 343.098 244.032 349.954C244.816 358.372 246.56 362.389 249.92 370.1C271.958 420.673 309.113 434.074 346.799 474.36C373.653 503.066 416.161 547.301 416.161 547.301L440.321 523.142L525.001 459.287L563.341 429.624L583.84 414.331C583.84 414.331 589.762 412.848 593.547 413.301C596.759 413.685 598.7 414.1 601.438 415.823C603.871 417.354 606.661 419.184 608.694 421.218C610.728 423.251 610.67 423.613 611.85 426.235C613.263 429.374 611.715 435.048 611.715 435.048L561.607 485.156L541.921 504.841L539.129 514.575L546.938 522.385L556.591 524.88L716.299 509.21C716.299 509.21 731.42 507.867 738.263 513.277C743.286 517.249 746.859 520.749 746.859 527.242C746.859 530.207 746.466 533.444 744.473 535.64C739.072 541.59 731.737 544.26 731.737 544.26L626.576 557.283L619.418 564.442L624.624 569.648L680.997 570.544L744.473 567.806C744.473 567.806 758.388 567.054 766.464 570.111C773.767 572.877 778.574 574.898 783.031 581.31C785.377 584.686 787.656 586.842 787.289 590.936C786.802 596.35 784.955 599.195 781.111 603.039C777.966 606.184 769.393 608.832 769.393 608.832L755.293 609.049L658.41 607.013L640.827 607.013L625.763 610.158L638.475 614.794L697.782 624.91C697.782 624.91 714.495 628.117 720.765 628.901C727.035 629.685 731.737 631.252 738.263 632.82C738.263 632.82 746.859 632.82 755.293 639.089C760.316 642.823 766.708 648.645 765.164 654.711C763.848 659.88 760.227 661.864 755.589 664.407L755.321 664.554C750.084 667.426 746.235 666.765 740.299 667.428C730.384 668.535 714.757 666.939 714.757 666.939L684.903 660.35L655.889 656.39L637.692 657.115L615.325 658.776L605.618 659.806L649.463 673.229C649.463 673.229 669.618 680.537 680.796 685.328C686.549 687.794 687.642 687.68 692.333 692.834C693.996 694.661 694.634 701.252 693.335 703.354C690.441 708.039 684.903 710.407 684.903 710.407L670.608 712.758L372.047 666.038C372.047 666.038 346.229 657.349 329.042 655.246C312.992 653.281 303.306 651.008 287.637 655.001C279.314 657.122 274.398 658.486 267.247 663.243C260.252 667.897 256.688 671.46 252.035 678.455C247.278 685.606 244.312 690.272 243.793 698.845C243.435 704.745 243.623 708.47 246.206 713.786C249.138 719.82 252.963 721.94 258.354 725.934C266.18 731.732 272.053 732.556 281.104 736.157C314.385 749.396 370.666 755.925 370.666 755.925L448.785 774.989Z" fill="#D395C4"/>
<path d="M448.785 774.989C448.785 774.989 502.657 786.827 530.457 792.235L601.642 806.085C629.441 811.494 604.294 806.621 606 806.933C625.641 810.53 637.1 810.294 657.058 809.673C675.425 809.101 686.334 810.161 703.832 804.549C719.566 799.502 727.329 793.662 741.142 784.593C756.569 774.463 764.406 767.211 777.696 754.911L778.615 754.062C796.04 737.939 806.204 728.817 819.829 709.376C829.237 695.954 834.447 688.105 840.653 672.934C847.654 655.819 849.597 645.29 851.932 626.947L852.038 626.116C853.759 612.609 854.783 604.575 853.368 590.802C851.078 568.496 834.821 536.463 834.821 536.463L793.631 464.851L755.994 391.422L694.576 260.21L672.53 204.162C672.53 204.162 665.183 187.544 657.047 179.731C649.585 172.566 644.767 167.047 634.351 165.983C626.32 165.163 621.383 167.109 614.015 170.701L613.469 170.967C607.068 174.084 602.687 176.218 598.858 182.388C595.105 188.433 594.747 193.012 595.062 200.067C596.702 236.897 620.091 291.31 620.091 291.31L634.381 336.023L635.113 345.703L623.644 346.761L618.438 341.554L609.869 325.827L579.933 267.258L543.055 201.747L529.303 173.545L510.461 144.099C510.461 144.099 500.355 130.559 491.372 125.01C485.684 121.496 482.309 119.087 475.618 118.204C466.553 117.007 455.308 121.159 455.308 121.159C455.308 121.159 445.331 125.61 441.1 128.425C434.378 132.899 432.768 138.098 430.429 145.65L430.254 146.213C427.099 156.388 427.796 162.837 428.918 173.219L428.953 173.545C431.228 194.594 451.107 222.543 451.107 222.543L489.748 288.027L517.189 336.943L531.642 371.081L532.402 378.999L523.589 379.134L504.581 354.757L448.532 275.444L413.146 227.531C413.146 227.531 401.901 209.884 393.721 199.279C385.818 189.034 385.884 187.523 378.047 179.731C373.574 175.284 359.484 164.921 359.484 164.921C359.484 164.921 349.83 158.849 342.862 157.247C336.49 155.782 332.595 155.901 326.322 157.742C316.838 160.525 312.735 165.696 306.729 173.545C302.814 178.661 301.481 182.392 299.349 188.358L299.207 188.754C295.963 197.829 296.862 203.995 298.828 213.429C300.906 223.405 305.171 228.031 309.918 237.047C327.265 269.988 367.784 312.808 367.784 312.808L409.163 372.082L434.245 402.533L455.775 434.801L466.187 445.213L465.184 453.158L460.71 457.632L450.217 452.507L428.524 430.814L365.182 367.472C365.182 367.472 339.897 340.599 323.971 324.673C315.838 316.54 313.782 312.643 302.81 307.431C297.816 305.059 295.027 304.529 289.502 304.319C285.375 304.163 282.977 303.672 278.927 304.482C272.353 305.796 269.164 308.589 263.824 312.643C259.101 316.229 256.846 317.345 252.653 321.538C249.159 325.032 248.094 327.916 245.87 332.329C243.248 337.531 243.394 343.098 244.032 349.954C244.816 358.372 246.56 362.389 249.92 370.1C271.958 420.673 309.113 434.074 346.799 474.36C373.653 503.066 416.161 547.301 416.161 547.301L440.321 523.142L525.001 459.287L563.341 429.624L583.84 414.331C583.84 414.331 589.762 412.848 593.547 413.301C596.759 413.685 598.7 414.1 601.438 415.823C603.871 417.354 606.661 419.184 608.694 421.218C610.728 423.251 610.67 423.613 611.85 426.235C613.263 429.374 611.715 435.048 611.715 435.048L561.607 485.156L541.921 504.841L539.129 514.575L546.938 522.385L556.591 524.88L716.299 509.21C716.299 509.21 731.42 507.867 738.263 513.277C743.286 517.249 746.859 520.749 746.859 527.242C746.859 530.207 746.466 533.444 744.473 535.64C739.072 541.59 731.737 544.26 731.737 544.26L626.576 557.283L619.418 564.442L624.624 569.648L680.997 570.544L744.473 567.806C744.473 567.806 758.388 567.054 766.464 570.111C773.767 572.877 778.574 574.898 783.031 581.31C785.377 584.686 787.656 586.842 787.289 590.936C786.802 596.35 784.955 599.195 781.111 603.039C777.966 606.184 769.393 608.832 769.393 608.832L755.293 609.049L658.41 607.013L640.827 607.013L625.763 610.158L638.475 614.794L697.782 624.91C697.782 624.91 714.495 628.117 720.765 628.901C727.035 629.685 731.737 631.252 738.263 632.82C738.263 632.82 746.859 632.82 755.293 639.089C760.316 642.823 766.708 648.645 765.164 654.711C763.848 659.88 760.227 661.864 755.589 664.407L755.321 664.554C750.084 667.426 746.235 666.765 740.299 667.428C730.384 668.535 714.757 666.939 714.757 666.939L684.903 660.35L655.889 656.39L637.692 657.115L615.325 658.776L605.618 659.806L649.463 673.229C649.463 673.229 669.618 680.537 680.796 685.328C686.549 687.794 687.642 687.68 692.333 692.834C693.996 694.661 694.634 701.252 693.335 703.354C690.441 708.039 684.903 710.407 684.903 710.407L670.608 712.758L372.047 666.038C372.047 666.038 346.229 657.349 329.042 655.246C312.992 653.281 303.306 651.008 287.637 655.001C279.314 657.122 274.398 658.486 267.247 663.243C260.252 667.897 256.688 671.46 252.035 678.455C247.278 685.606 244.312 690.272 243.793 698.845C243.435 704.745 243.623 708.47 246.206 713.786C249.138 719.82 252.963 721.94 258.354 725.934C266.18 731.732 272.053 732.556 281.104 736.157C314.385 749.396 370.666 755.925 370.666 755.925L448.785 774.989Z" fill="url(#paint0_linear)"/>
<path d="M127.895 625.775C131.52 625.775 134.565 625.34 137.03 624.47C139.495 623.6 141.453 622.44 142.903 620.99C144.401 619.54 145.464 617.848 146.093 615.915C146.769 613.982 147.108 611.927 147.108 609.752C147.108 607.481 146.745 605.451 146.02 603.662C145.295 601.826 144.159 600.279 142.613 599.022C141.066 597.717 139.06 596.727 136.595 596.05C134.178 595.373 131.254 595.035 127.823 595.035H108.175V625.775H127.895ZM108.175 551.245V581.55H123.69C130.36 581.55 135.387 580.342 138.77 577.925C142.202 575.508 143.918 571.666 143.918 566.397C143.918 560.936 142.371 557.045 139.278 554.725C136.184 552.405 131.351 551.245 124.778 551.245H108.175ZM124.778 536.165C131.641 536.165 137.513 536.817 142.395 538.122C147.277 539.427 151.264 541.288 154.358 543.705C157.499 546.122 159.795 549.046 161.245 552.477C162.695 555.909 163.42 559.776 163.42 564.077C163.42 566.542 163.058 568.911 162.333 571.182C161.608 573.406 160.472 575.508 158.925 577.49C157.427 579.423 155.493 581.187 153.125 582.782C150.805 584.377 148.026 585.731 144.788 586.842C159.191 590.081 166.393 597.862 166.393 610.187C166.393 614.634 165.547 618.742 163.855 622.512C162.163 626.282 159.698 629.545 156.46 632.3C153.222 635.007 149.234 637.133 144.498 638.68C139.761 640.227 134.348 641 128.258 641H88.6725V536.165H124.778ZM198.57 566.615V641H180.59V566.615H198.57ZM201.035 544.937C201.035 546.484 200.721 547.934 200.093 549.287C199.464 550.641 198.618 551.825 197.555 552.84C196.54 553.855 195.332 554.677 193.93 555.305C192.528 555.885 191.03 556.175 189.435 556.175C187.888 556.175 186.414 555.885 185.013 555.305C183.659 554.677 182.475 553.855 181.46 552.84C180.445 551.825 179.623 550.641 178.995 549.287C178.415 547.934 178.125 546.484 178.125 544.937C178.125 543.342 178.415 541.844 178.995 540.442C179.623 539.041 180.445 537.832 181.46 536.817C182.475 535.802 183.659 535.005 185.013 534.425C186.414 533.797 187.888 533.482 189.435 533.482C191.03 533.482 192.528 533.797 193.93 534.425C195.332 535.005 196.54 535.802 197.555 536.817C198.618 537.832 199.464 539.041 200.093 540.442C200.721 541.844 201.035 543.342 201.035 544.937ZM241.621 642.16C235.145 642.16 230.166 640.347 226.686 636.722C223.255 633.049 221.539 627.998 221.539 621.57V580.027H213.926C212.96 580.027 212.138 579.713 211.461 579.085C210.785 578.457 210.446 577.514 210.446 576.257V569.152L222.409 567.195L226.179 546.895C226.421 545.928 226.88 545.179 227.556 544.647C228.233 544.116 229.103 543.85 230.166 543.85H239.446V567.267H259.311V580.027H239.446V620.337C239.446 622.657 240.002 624.47 241.114 625.775C242.274 627.08 243.845 627.732 245.826 627.732C246.938 627.732 247.856 627.612 248.581 627.37C249.355 627.08 250.007 626.79 250.539 626.5C251.119 626.21 251.626 625.944 252.061 625.702C252.496 625.412 252.931 625.267 253.366 625.267C253.898 625.267 254.333 625.412 254.671 625.702C255.01 625.944 255.372 626.331 255.759 626.862L261.124 635.562C258.514 637.737 255.517 639.381 252.134 640.492C248.751 641.604 245.246 642.16 241.621 642.16ZM276.069 641V580.1L269.617 579.085C268.215 578.795 267.079 578.312 266.209 577.635C265.387 576.91 264.977 575.895 264.977 574.59V567.267H276.069V564.875C276.069 560.332 276.818 556.127 278.317 552.26C279.815 548.345 282.087 544.962 285.132 542.11C288.177 539.258 292.019 537.035 296.659 535.44C301.347 533.797 306.857 532.975 313.189 532.975C315.219 532.975 317.273 533.096 319.352 533.337C321.478 533.531 323.315 533.869 324.862 534.352L324.282 543.632C324.185 544.744 323.581 545.421 322.469 545.662C321.357 545.856 319.98 545.952 318.337 545.952C313.648 545.952 309.709 546.363 306.519 547.185C303.377 548.007 300.816 549.239 298.834 550.882C296.901 552.477 295.499 554.507 294.629 556.972C293.807 559.389 293.397 562.217 293.397 565.455V567.267H339.507V641H321.599V580.027H293.977V641H276.069ZM374.609 575.75C376.107 574.252 377.678 572.874 379.322 571.617C381.013 570.312 382.777 569.225 384.614 568.355C386.499 567.437 388.505 566.736 390.632 566.252C392.758 565.721 395.078 565.455 397.592 565.455C401.652 565.455 405.252 566.156 408.394 567.557C411.536 568.911 414.146 570.844 416.224 573.357C418.351 575.822 419.946 578.795 421.009 582.275C422.121 585.707 422.677 589.501 422.677 593.657V641H404.769V593.657C404.769 589.114 403.73 585.61 401.652 583.145C399.573 580.632 396.407 579.375 392.154 579.375C389.061 579.375 386.161 580.076 383.454 581.477C380.747 582.879 378.186 584.788 375.769 587.205V641H357.862V566.615H368.809C371.129 566.615 372.652 567.702 373.377 569.877L374.609 575.75ZM492.995 582.347C492.463 583.024 491.931 583.556 491.4 583.942C490.916 584.329 490.191 584.522 489.225 584.522C488.306 584.522 487.412 584.257 486.542 583.725C485.672 583.145 484.633 582.517 483.425 581.84C482.216 581.115 480.766 580.487 479.075 579.955C477.431 579.375 475.377 579.085 472.912 579.085C469.771 579.085 467.016 579.665 464.647 580.825C462.279 581.937 460.297 583.556 458.702 585.682C457.156 587.809 455.996 590.395 455.222 593.44C454.449 596.437 454.062 599.844 454.062 603.662C454.062 607.626 454.473 611.154 455.295 614.247C456.165 617.341 457.397 619.951 458.992 622.077C460.587 624.156 462.521 625.751 464.792 626.862C467.064 627.926 469.626 628.457 472.477 628.457C475.329 628.457 477.625 628.119 479.365 627.442C481.153 626.717 482.651 625.944 483.86 625.122C485.068 624.252 486.107 623.479 486.977 622.802C487.896 622.077 488.911 621.715 490.022 621.715C491.472 621.715 492.56 622.271 493.285 623.382L498.432 629.907C496.451 632.227 494.3 634.185 491.98 635.78C489.66 637.327 487.243 638.583 484.73 639.55C482.265 640.468 479.703 641.121 477.045 641.508C474.435 641.894 471.825 642.088 469.215 642.088C464.623 642.088 460.297 641.242 456.237 639.55C452.177 637.81 448.625 635.297 445.58 632.01C442.535 628.723 440.118 624.712 438.33 619.975C436.59 615.19 435.72 609.752 435.72 603.662C435.72 598.201 436.493 593.15 438.04 588.51C439.635 583.822 441.955 579.786 445 576.402C448.045 572.971 451.815 570.288 456.31 568.355C460.805 566.422 465.976 565.455 471.825 565.455C477.383 565.455 482.241 566.349 486.397 568.138C490.602 569.926 494.372 572.487 497.707 575.822L492.995 582.347ZM548.953 609.245C543.782 609.487 539.432 609.946 535.903 610.622C532.375 611.251 529.548 612.072 527.421 613.087C525.294 614.102 523.772 615.287 522.853 616.64C521.935 617.993 521.476 619.467 521.476 621.062C521.476 624.204 522.394 626.452 524.231 627.805C526.116 629.158 528.557 629.835 531.553 629.835C535.227 629.835 538.393 629.182 541.051 627.877C543.758 626.524 546.392 624.494 548.953 621.787V609.245ZM507.918 576.982C516.473 569.152 526.768 565.237 538.803 565.237C543.153 565.237 547.044 565.962 550.476 567.412C553.908 568.814 556.808 570.796 559.176 573.357C561.544 575.871 563.333 578.892 564.541 582.42C565.798 585.948 566.426 589.815 566.426 594.02V641H558.306C556.614 641 555.309 640.758 554.391 640.275C553.473 639.743 552.748 638.704 552.216 637.157L550.621 631.792C548.736 633.484 546.899 634.982 545.111 636.287C543.323 637.544 541.462 638.607 539.528 639.477C537.595 640.347 535.517 641 533.293 641.435C531.118 641.918 528.702 642.16 526.043 642.16C522.902 642.16 520.002 641.749 517.343 640.927C514.685 640.057 512.389 638.777 510.456 637.085C508.523 635.393 507.024 633.291 505.961 630.777C504.898 628.264 504.366 625.34 504.366 622.005C504.366 620.12 504.68 618.259 505.308 616.422C505.937 614.537 506.952 612.749 508.353 611.057C509.803 609.366 511.664 607.771 513.936 606.272C516.208 604.774 518.987 603.469 522.273 602.357C525.608 601.246 529.475 600.352 533.873 599.675C538.272 598.95 543.298 598.515 548.953 598.37V594.02C548.953 589.042 547.89 585.368 545.763 583C543.637 580.583 540.568 579.375 536.556 579.375C533.656 579.375 531.239 579.713 529.306 580.39C527.421 581.067 525.753 581.84 524.303 582.71C522.853 583.532 521.524 584.281 520.316 584.957C519.156 585.634 517.851 585.972 516.401 585.972C515.144 585.972 514.081 585.658 513.211 585.03C512.341 584.353 511.64 583.58 511.108 582.71L507.918 576.982Z" fill="#716B94"/>
<path d="M268.629 447.501C274.981 453.853 258.611 480.521 232.066 507.066C205.521 533.611 178.853 549.981 172.501 543.629C166.149 537.277 182.519 510.609 209.064 484.064C235.609 457.519 262.277 441.149 268.629 447.501Z" fill="#9EF4C4"/>
<path d="M268.629 447.501C274.981 453.853 258.611 480.521 232.066 507.066C205.521 533.611 178.853 549.981 172.501 543.629C166.149 537.277 182.519 510.609 209.064 484.064C235.609 457.519 262.277 441.149 268.629 447.501Z" stroke="#B4D4CC"/>
<path d="M188.365 559.493L172.501 543.629C226.808 501.808 226.808 501.808 268.629 447.501L284.493 463.365C284.493 463.365 260.559 497.632 241.687 516.504C222.815 535.377 188.365 559.493 188.365 559.493Z" fill="#4CAA96"/>
<path d="M175.614 540.952L191.773 557.11" stroke="#B4D4CC"/>
<path d="M179.233 538.43L195.39 554.586" stroke="#B4D4CC"/>
<path d="M182.985 535.773L199.142 551.93" stroke="#B4D4CC"/>
<path d="M186.737 533.116L202.894 549.273" stroke="#B4D4CC"/>
<path d="M189.941 529.912L206.098 546.069" stroke="#B4D4CC"/>
<path d="M193.693 527.256L209.85 543.412" stroke="#B4D4CC"/>
<path d="M197.445 524.599L213.602 540.756" stroke="#B4D4CC"/>
<path d="M201.197 521.942L217.354 538.099" stroke="#B4D4CC"/>
<path d="M204.401 518.738L220.558 534.895" stroke="#B4D4CC"/>
<path d="M208.154 516.082L224.31 532.238" stroke="#B4D4CC"/>
<path d="M211.892 512.343L228.048 528.5" stroke="#B4D4CC"/>
<path d="M216.712 508.619L232.868 524.775" stroke="#B4D4CC"/>
<path d="M220.984 504.346L237.141 520.503" stroke="#B4D4CC"/>
<path d="M225.256 500.074L241.413 516.23" stroke="#B4D4CC"/>
<path d="M228.995 496.336L245.151 512.492" stroke="#B4D4CC"/>
<path d="M233.801 491.529L249.958 507.686" stroke="#B4D4CC"/>
<path d="M237.526 486.709L253.682 502.866" stroke="#B4D4CC"/>
<path d="M241.798 482.437L257.955 498.593" stroke="#B4D4CC"/>
<path d="M245.523 477.617L261.679 493.773" stroke="#B4D4CC"/>
<path d="M249.248 472.797L265.404 488.953" stroke="#B4D4CC"/>
<path d="M252.972 467.977L269.129 484.133" stroke="#B4D4CC"/>
<path d="M256.149 462.609L272.306 478.766" stroke="#B4D4CC"/>
<path d="M259.874 457.789L276.03 473.946" stroke="#B4D4CC"/>
<path d="M263.599 452.969L279.755 469.126" stroke="#B4D4CC"/>
<path d="M266.789 448.683L282.946 464.84" stroke="#B4D4CC"/>
</g>
<defs>
<filter id="filter0_d" x="0.778076" y="0.778015" width="1008.73" height="1008.73" filterUnits="userSpaceOnUse" color-interpolation-filters="sRGB">
<feFlood flood-opacity="0" result="BackgroundImageFix"/>
<feColorMatrix in="SourceAlpha" type="matrix" values="0 0 0 0 0 0 0 0 0 0 0 0 0 0 0 0 0 0 127 0"/>
<feOffset dy="4"/>
<feGaussianBlur stdDeviation="2"/>
<feColorMatrix type="matrix" values="0 0 0 0 0 0 0 0 0 0 0 0 0 0 0 0 0 0 0.25 0"/>
<feBlend mode="normal" in2="BackgroundImageFix" result="effect1_dropShadow"/>
<feBlend mode="normal" in="SourceGraphic" in2="effect1_dropShadow" result="shape"/>
</filter>
<linearGradient id="paint0_linear" x1="241.662" y1="237.662" x2="768.338" y2="764.338" gradientUnits="userSpaceOnUse">
<stop offset="0.413947" stop-color="#81D5DC"/>
<stop offset="1" stop-color="white" stop-opacity="0"/>
</linearGradient>
</defs>
</svg>
