<svg width="638" height="638" viewBox="0 0 638 638" fill="none" xmlns="http://www.w3.org/2000/svg">
<g filter="url(#filter0_d)">
<path d="M335.236 504.8C317.5 501.349 283.13 493.797 283.13 493.797L233.291 481.635C233.291 481.635 197.385 477.469 176.151 469.022C170.377 466.726 166.63 466.2 161.637 462.5C158.198 459.952 155.758 458.6 153.887 454.75C152.239 451.359 152.119 448.982 152.347 445.218C152.678 439.749 154.571 436.772 157.606 432.209C160.575 427.747 162.848 425.473 167.311 422.505C171.873 419.469 175.01 418.599 180.32 417.246C190.316 414.698 196.496 416.149 206.736 417.402C217.701 418.744 234.172 424.288 234.172 424.288L424.651 454.095L433.771 452.595C433.771 452.595 437.304 451.084 439.151 448.095C439.979 446.753 439.572 442.549 438.511 441.383C435.519 438.095 434.821 438.168 431.151 436.595C424.019 433.538 411.161 428.875 411.161 428.875L383.188 420.311L389.381 419.654L403.651 418.595L415.261 418.132L433.771 420.658L452.818 424.862C452.818 424.862 462.788 425.88 469.113 425.174C472.901 424.751 475.356 425.173 478.697 423.341L478.868 423.247C481.827 421.625 484.137 420.359 484.977 417.061C485.962 413.191 481.884 409.477 478.679 407.095C473.298 403.095 467.814 403.095 467.814 403.095C463.651 402.095 460.651 401.095 456.651 400.595C452.651 400.095 441.988 398.048 441.988 398.048L404.151 391.595L396.041 388.637L405.651 386.63H416.869L478.679 387.929L487.675 387.791C487.675 387.791 493.144 386.101 495.151 384.095C497.603 381.642 498.782 379.828 499.092 376.373C499.327 373.762 497.873 372.385 496.376 370.232C493.532 366.141 490.466 364.852 485.806 363.087C480.654 361.136 471.776 361.617 471.776 361.617L431.279 363.363L395.314 362.792L391.992 359.47L396.559 354.903L463.651 346.595C463.651 346.595 468.331 344.891 471.776 341.095C473.048 339.694 473.298 337.629 473.298 335.737C473.298 331.595 471.019 329.362 467.814 326.828C463.449 323.376 453.802 324.233 453.802 324.233L351.909 334.23L345.751 332.638L340.769 327.656L342.55 321.446L355.109 308.886L387.078 276.918C387.078 276.918 388.065 273.298 387.164 271.296C386.411 269.623 386.448 269.392 385.151 268.095C383.854 266.797 382.074 265.63 380.521 264.653C378.774 263.554 377.536 263.289 375.487 263.044C373.072 262.755 369.294 263.701 369.294 263.701L356.216 273.458L331.755 292.383L277.73 333.121L262.317 348.535C262.317 348.535 235.197 320.313 218.065 301.999C194.021 276.297 170.317 267.747 156.256 235.482C154.113 230.562 153 228 152.5 222.629C152.093 218.255 152 214.703 153.673 211.384C155.092 208.569 155.771 206.729 158 204.5C160.675 201.825 162.114 201.113 165.127 198.825C168.534 196.239 170.568 194.457 174.763 193.618C177.347 193.102 178.876 193.415 181.509 193.515C185.034 193.649 186.814 193.986 190 195.5C197 198.825 198.311 201.311 203.5 206.5C213.661 216.661 229.792 233.806 229.792 233.806L270.204 274.217L284.044 288.057L290.738 291.327L293.593 288.472L294.233 283.404L287.59 276.761L273.854 256.174L257.852 236.747L231.452 198.93C231.452 198.93 205.602 171.612 194.535 150.595C191.506 144.843 188.785 141.892 187.459 135.528C186.205 129.508 185.631 125.575 187.701 119.785L187.791 119.533C189.152 115.726 190.002 113.346 192.5 110.082C196.332 105.074 198.949 101.775 205 100C209.002 98.8255 211.487 98.7496 215.553 99.6841C219.998 100.706 226.157 104.58 226.157 104.58C226.157 104.58 235.146 111.191 238 114.029C243 119 242.958 119.964 248 126.5C253.219 133.266 260.393 144.525 260.393 144.525L282.969 175.093L318.728 225.694L330.855 241.246L336.477 241.16L335.992 236.108L326.771 214.328L309.264 183.12L284.612 141.342C284.612 141.342 271.929 123.511 270.478 110.082L270.455 109.874C269.739 103.25 269.295 99.136 271.308 92.6443L271.419 92.2851C272.912 87.467 273.939 84.1503 278.227 81.2961C280.926 79.4999 287.292 76.6601 287.292 76.6601C287.292 76.6601 294.466 74.0114 300.249 74.7747C304.518 75.3382 306.672 76.8755 310.3 79.117C316.032 82.6574 322.479 91.2959 322.479 91.2959L334.5 110.082L343.273 128.074L366.801 169.87L385.9 207.237L391.367 217.27L394.688 220.592L402.006 219.917L401.539 213.741L392.422 185.215C392.422 185.215 377.5 150.5 376.453 127.002C376.253 122.502 376.481 119.58 378.875 115.723C381.318 111.787 384.113 110.426 388.197 108.437L388.545 108.268C393.246 105.976 396.396 104.735 401.52 105.258C408.165 105.936 411.239 109.457 415.999 114.029C421.19 119.013 425.877 129.616 425.877 129.616L439.942 165.373L479.127 249.085L503.139 295.932L529.417 341.62C529.417 341.62 539.789 362.057 541.25 376.288C542.153 385.075 541.499 390.2 540.401 398.818L540.334 399.348C538.844 411.05 537.604 417.768 533.138 428.687C529.179 438.366 525.855 443.373 519.853 451.937C511.16 464.34 504.675 470.159 493.558 480.446L492.972 480.988C484.493 488.835 479.493 493.462 469.651 499.924C460.839 505.71 455.886 509.436 445.848 512.656C434.684 516.237 427.724 515.56 416.006 515.925C403.273 516.322 395.963 516.472 383.432 514.177C383.428 514.177 383.425 514.176 383.422 514.175C396.528 516.727 382.502 514.008 383.422 514.175C382.607 514.017 381.687 513.838 380.651 513.636L335.236 504.8Z" fill="#D395C4"/>
<path d="M335.236 504.8C317.5 501.349 283.13 493.797 283.13 493.797L233.291 481.635C233.291 481.635 197.385 477.469 176.151 469.022C170.377 466.726 166.63 466.2 161.637 462.5C158.198 459.952 155.758 458.6 153.887 454.75C152.239 451.359 152.119 448.982 152.347 445.218C152.678 439.749 154.571 436.772 157.606 432.209C160.575 427.747 162.848 425.473 167.311 422.505C171.873 419.469 175.01 418.599 180.32 417.246C190.316 414.698 196.496 416.149 206.736 417.402C217.701 418.744 234.172 424.288 234.172 424.288L424.651 454.095L433.771 452.595C433.771 452.595 437.304 451.084 439.151 448.095C439.979 446.753 439.572 442.549 438.511 441.383C435.519 438.095 434.821 438.168 431.151 436.595C424.019 433.538 411.161 428.875 411.161 428.875L383.188 420.311L389.381 419.654L403.651 418.595L415.261 418.132L433.771 420.658L452.818 424.862C452.818 424.862 462.788 425.88 469.113 425.174C472.901 424.751 475.356 425.173 478.697 423.341L478.868 423.247C481.827 421.625 484.137 420.359 484.977 417.061C485.962 413.191 481.884 409.477 478.679 407.095C473.298 403.095 467.814 403.095 467.814 403.095C463.651 402.095 460.651 401.095 456.651 400.595C452.651 400.095 441.988 398.048 441.988 398.048L404.151 391.595L396.041 388.637L405.651 386.63H416.869L478.679 387.929L487.675 387.791C487.675 387.791 493.144 386.101 495.151 384.095C497.603 381.642 498.782 379.828 499.092 376.373C499.327 373.762 497.873 372.385 496.376 370.232C493.532 366.141 490.466 364.852 485.806 363.087C480.654 361.136 471.776 361.617 471.776 361.617L431.279 363.363L395.314 362.792L391.992 359.47L396.559 354.903L463.651 346.595C463.651 346.595 468.331 344.891 471.776 341.095C473.048 339.694 473.298 337.629 473.298 335.737C473.298 331.595 471.019 329.362 467.814 326.828C463.449 323.376 453.802 324.233 453.802 324.233L351.909 334.23L345.751 332.638L340.769 327.656L342.55 321.446L355.109 308.886L387.078 276.918C387.078 276.918 388.065 273.298 387.164 271.296C386.411 269.623 386.448 269.392 385.151 268.095C383.854 266.797 382.074 265.63 380.521 264.653C378.774 263.554 377.536 263.289 375.487 263.044C373.072 262.755 369.294 263.701 369.294 263.701L356.216 273.458L331.755 292.383L277.73 333.121L262.317 348.535C262.317 348.535 235.197 320.313 218.065 301.999C194.021 276.297 170.317 267.747 156.256 235.482C154.113 230.562 153 228 152.5 222.629C152.093 218.255 152 214.703 153.673 211.384C155.092 208.569 155.771 206.729 158 204.5C160.675 201.825 162.114 201.113 165.127 198.825C168.534 196.239 170.568 194.457 174.763 193.618C177.347 193.102 178.876 193.415 181.509 193.515C185.034 193.649 186.814 193.986 190 195.5C197 198.825 198.311 201.311 203.5 206.5C213.661 216.661 229.792 233.806 229.792 233.806L270.204 274.217L284.044 288.057L290.738 291.327L293.593 288.472L294.233 283.404L287.59 276.761L273.854 256.174L257.852 236.747L231.452 198.93C231.452 198.93 205.602 171.612 194.535 150.595C191.506 144.843 188.785 141.892 187.459 135.528C186.205 129.508 185.631 125.575 187.701 119.785L187.791 119.533C189.152 115.726 190.002 113.346 192.5 110.082C196.332 105.074 198.949 101.775 205 100C209.002 98.8255 211.487 98.7496 215.553 99.6841C219.998 100.706 226.157 104.58 226.157 104.58C226.157 104.58 235.146 111.191 238 114.029C243 119 242.958 119.964 248 126.5C253.219 133.266 260.393 144.525 260.393 144.525L282.969 175.093L318.728 225.694L330.855 241.246L336.477 241.16L335.992 236.108L326.771 214.328L309.264 183.12L284.612 141.342C284.612 141.342 271.929 123.511 270.478 110.082L270.455 109.874C269.739 103.25 269.295 99.136 271.308 92.6443L271.419 92.2851C272.912 87.467 273.939 84.1503 278.227 81.2961C280.926 79.4999 287.292 76.6601 287.292 76.6601C287.292 76.6601 294.466 74.0114 300.249 74.7747C304.518 75.3382 306.672 76.8755 310.3 79.117C316.032 82.6574 322.479 91.2959 322.479 91.2959L334.5 110.082L343.273 128.074L366.801 169.87L385.9 207.237L391.367 217.27L394.688 220.592L402.006 219.917L401.539 213.741L392.422 185.215C392.422 185.215 377.5 150.5 376.453 127.002C376.253 122.502 376.481 119.58 378.875 115.723C381.318 111.787 384.113 110.426 388.197 108.437L388.545 108.268C393.246 105.976 396.396 104.735 401.52 105.258C408.165 105.936 411.239 109.457 415.999 114.029C421.19 119.013 425.877 129.616 425.877 129.616L439.942 165.373L479.127 249.085L503.139 295.932L529.417 341.62C529.417 341.62 539.789 362.057 541.25 376.288C542.153 385.075 541.499 390.2 540.401 398.818L540.334 399.348C538.844 411.05 537.604 417.768 533.138 428.687C529.179 438.366 525.855 443.373 519.853 451.937C511.16 464.34 504.675 470.159 493.558 480.446L492.972 480.988C484.493 488.835 479.493 493.462 469.651 499.924C460.839 505.71 455.886 509.436 445.848 512.656C434.684 516.237 427.724 515.56 416.006 515.925C403.273 516.322 395.963 516.472 383.432 514.177C383.428 514.177 383.425 514.176 383.422 514.175C396.528 516.727 382.502 514.008 383.422 514.175C382.607 514.017 381.687 513.838 380.651 513.636L335.236 504.8Z" fill="url(#paint0_linear)"/>
<path d="M61.7509 398.595C64.2509 398.595 66.3509 398.295 68.0509 397.695C69.7509 397.095 71.1009 396.295 72.1009 395.295C73.1342 394.295 73.8675 393.128 74.3009 391.795C74.7675 390.461 75.0009 389.045 75.0009 387.545C75.0009 385.978 74.7509 384.578 74.2509 383.345C73.7509 382.078 72.9675 381.011 71.9009 380.145C70.8342 379.245 69.4509 378.561 67.7509 378.095C66.0842 377.628 64.0675 377.395 61.7009 377.395H48.1509V398.595H61.7509ZM48.1509 347.195V368.095H58.8509C63.4509 368.095 66.9175 367.261 69.2509 365.595C71.6175 363.928 72.8009 361.278 72.8009 357.645C72.8009 353.878 71.7342 351.195 69.6009 349.595C67.4675 347.995 64.1342 347.195 59.6009 347.195H48.1509ZM59.6009 336.795C64.3342 336.795 68.3842 337.245 71.7509 338.145C75.1175 339.045 77.8675 340.328 80.0009 341.995C82.1675 343.661 83.7509 345.678 84.7509 348.045C85.7509 350.411 86.2509 353.078 86.2509 356.045C86.2509 357.745 86.0009 359.378 85.5009 360.945C85.0009 362.478 84.2175 363.928 83.1509 365.295C82.1175 366.628 80.7842 367.845 79.1509 368.945C77.5509 370.045 75.6342 370.978 73.4009 371.745C83.3342 373.978 88.3009 379.345 88.3009 387.845C88.3009 390.911 87.7175 393.745 86.5509 396.345C85.3842 398.945 83.6842 401.195 81.4509 403.095C79.2175 404.961 76.4675 406.428 73.2009 407.495C69.9342 408.561 66.2009 409.095 62.0009 409.095H34.7009V336.795H59.6009ZM110.492 357.795V409.095H98.0923V357.795H110.492ZM112.192 342.845C112.192 343.911 111.976 344.911 111.542 345.845C111.109 346.778 110.526 347.595 109.792 348.295C109.092 348.995 108.259 349.561 107.292 349.995C106.326 350.395 105.292 350.595 104.192 350.595C103.126 350.595 102.109 350.395 101.142 349.995C100.209 349.561 99.3923 348.995 98.6923 348.295C97.9923 347.595 97.4256 346.778 96.9923 345.845C96.5923 344.911 96.3923 343.911 96.3923 342.845C96.3923 341.745 96.5923 340.711 96.9923 339.745C97.4256 338.778 97.9923 337.945 98.6923 337.245C99.3923 336.545 100.209 335.995 101.142 335.595C102.109 335.161 103.126 334.945 104.192 334.945C105.292 334.945 106.326 335.161 107.292 335.595C108.259 335.995 109.092 336.545 109.792 337.245C110.526 337.945 111.109 338.778 111.542 339.745C111.976 340.711 112.192 341.745 112.192 342.845ZM140.183 409.895C135.716 409.895 132.283 408.645 129.883 406.145C127.516 403.611 126.333 400.128 126.333 395.695V367.045H121.083C120.416 367.045 119.85 366.828 119.383 366.395C118.916 365.961 118.683 365.311 118.683 364.445V359.545L126.933 358.195L129.533 344.195C129.7 343.528 130.016 343.011 130.483 342.645C130.95 342.278 131.55 342.095 132.283 342.095H138.683V358.245H152.383V367.045H138.683V394.845C138.683 396.445 139.066 397.695 139.833 398.595C140.633 399.495 141.716 399.945 143.083 399.945C143.85 399.945 144.483 399.861 144.983 399.695C145.516 399.495 145.966 399.295 146.333 399.095C146.733 398.895 147.083 398.711 147.383 398.545C147.683 398.345 147.983 398.245 148.283 398.245C148.65 398.245 148.95 398.345 149.183 398.545C149.416 398.711 149.666 398.978 149.933 399.345L153.633 405.345C151.833 406.845 149.766 407.978 147.433 408.745C145.1 409.511 142.683 409.895 140.183 409.895ZM163.94 409.095V367.095L159.49 366.395C158.523 366.195 157.74 365.861 157.14 365.395C156.573 364.895 156.29 364.195 156.29 363.295V358.245H163.94V356.595C163.94 353.461 164.457 350.561 165.49 347.895C166.523 345.195 168.09 342.861 170.19 340.895C172.29 338.928 174.94 337.395 178.14 336.295C181.373 335.161 185.173 334.595 189.54 334.595C190.94 334.595 192.357 334.678 193.79 334.845C195.257 334.978 196.523 335.211 197.59 335.545L197.19 341.945C197.123 342.711 196.707 343.178 195.94 343.345C195.173 343.478 194.223 343.545 193.09 343.545C189.857 343.545 187.14 343.828 184.94 344.395C182.773 344.961 181.007 345.811 179.64 346.945C178.307 348.045 177.34 349.445 176.74 351.145C176.173 352.811 175.89 354.761 175.89 356.995V358.245H207.69V409.095H195.34V367.045H176.29V409.095H163.94ZM231.899 364.095C232.932 363.061 234.015 362.111 235.149 361.245C236.315 360.345 237.532 359.595 238.799 358.995C240.099 358.361 241.482 357.878 242.949 357.545C244.415 357.178 246.015 356.995 247.749 356.995C250.549 356.995 253.032 357.478 255.199 358.445C257.365 359.378 259.165 360.711 260.599 362.445C262.065 364.145 263.165 366.195 263.899 368.595C264.665 370.961 265.049 373.578 265.049 376.445V409.095H252.699V376.445C252.699 373.311 251.982 370.895 250.549 369.195C249.115 367.461 246.932 366.595 243.999 366.595C241.865 366.595 239.865 367.078 237.999 368.045C236.132 369.011 234.365 370.328 232.699 371.995V409.095H220.349V357.795H227.899C229.499 357.795 230.549 358.545 231.049 360.045L231.899 364.095ZM313.544 368.645C313.177 369.111 312.811 369.478 312.444 369.745C312.111 370.011 311.611 370.145 310.944 370.145C310.311 370.145 309.694 369.961 309.094 369.595C308.494 369.195 307.777 368.761 306.944 368.295C306.111 367.795 305.111 367.361 303.944 366.995C302.811 366.595 301.394 366.395 299.694 366.395C297.527 366.395 295.627 366.795 293.994 367.595C292.361 368.361 290.994 369.478 289.894 370.945C288.827 372.411 288.027 374.195 287.494 376.295C286.961 378.361 286.694 380.711 286.694 383.345C286.694 386.078 286.977 388.511 287.544 390.645C288.144 392.778 288.994 394.578 290.094 396.045C291.194 397.478 292.527 398.578 294.094 399.345C295.661 400.078 297.427 400.445 299.394 400.445C301.361 400.445 302.944 400.211 304.144 399.745C305.377 399.245 306.411 398.711 307.244 398.145C308.077 397.545 308.794 397.011 309.394 396.545C310.027 396.045 310.727 395.795 311.494 395.795C312.494 395.795 313.244 396.178 313.744 396.945L317.294 401.445C315.927 403.045 314.444 404.395 312.844 405.495C311.244 406.561 309.577 407.428 307.844 408.095C306.144 408.728 304.377 409.178 302.544 409.445C300.744 409.711 298.944 409.845 297.144 409.845C293.977 409.845 290.994 409.261 288.194 408.095C285.394 406.895 282.944 405.161 280.844 402.895C278.744 400.628 277.077 397.861 275.844 394.595C274.644 391.295 274.044 387.545 274.044 383.345C274.044 379.578 274.577 376.095 275.644 372.895C276.744 369.661 278.344 366.878 280.444 364.545C282.544 362.178 285.144 360.328 288.244 358.995C291.344 357.661 294.911 356.995 298.944 356.995C302.777 356.995 306.127 357.611 308.994 358.845C311.894 360.078 314.494 361.845 316.794 364.145L313.544 368.645ZM352.136 387.195C348.569 387.361 345.569 387.678 343.136 388.145C340.703 388.578 338.753 389.145 337.286 389.845C335.819 390.545 334.769 391.361 334.136 392.295C333.503 393.228 333.186 394.245 333.186 395.345C333.186 397.511 333.819 399.061 335.086 399.995C336.386 400.928 338.069 401.395 340.136 401.395C342.669 401.395 344.853 400.945 346.686 400.045C348.553 399.111 350.369 397.711 352.136 395.845V387.195ZM323.836 364.945C329.736 359.545 336.836 356.845 345.136 356.845C348.136 356.845 350.819 357.345 353.186 358.345C355.553 359.311 357.553 360.678 359.186 362.445C360.819 364.178 362.053 366.261 362.886 368.695C363.753 371.128 364.186 373.795 364.186 376.695V409.095H358.586C357.419 409.095 356.519 408.928 355.886 408.595C355.253 408.228 354.753 407.511 354.386 406.445L353.286 402.745C351.986 403.911 350.719 404.945 349.486 405.845C348.253 406.711 346.969 407.445 345.636 408.045C344.303 408.645 342.869 409.095 341.336 409.395C339.836 409.728 338.169 409.895 336.336 409.895C334.169 409.895 332.169 409.611 330.336 409.045C328.503 408.445 326.919 407.561 325.586 406.395C324.253 405.228 323.219 403.778 322.486 402.045C321.753 400.311 321.386 398.295 321.386 395.995C321.386 394.695 321.603 393.411 322.036 392.145C322.469 390.845 323.169 389.611 324.136 388.445C325.136 387.278 326.419 386.178 327.986 385.145C329.553 384.111 331.469 383.211 333.736 382.445C336.036 381.678 338.703 381.061 341.736 380.595C344.769 380.095 348.236 379.795 352.136 379.695V376.695C352.136 373.261 351.403 370.728 349.936 369.095C348.469 367.428 346.353 366.595 343.586 366.595C341.586 366.595 339.919 366.828 338.586 367.295C337.286 367.761 336.136 368.295 335.136 368.895C334.136 369.461 333.219 369.978 332.386 370.445C331.586 370.911 330.686 371.145 329.686 371.145C328.819 371.145 328.086 370.928 327.486 370.495C326.886 370.028 326.403 369.495 326.036 368.895L323.836 364.945Z" fill="#716B94"/>
<path d="M154.317 282.432C158.37 286.485 147.926 303.499 130.991 320.434C114.055 337.37 97.0411 347.813 92.9886 343.761C88.9361 339.708 99.3798 322.694 116.315 305.759C133.251 288.823 150.265 278.38 154.317 282.432Z" fill="#9EF4C4"/>
<path d="M154.317 282.432C158.37 286.485 147.926 303.499 130.991 320.434C114.055 337.37 97.0411 347.813 92.9886 343.761C88.9361 339.708 99.3798 322.694 116.315 305.759C133.251 288.823 150.265 278.38 154.317 282.432Z" stroke="#B4D4CC"/>
<path d="M103.109 353.882L92.9885 343.761C127.636 317.08 127.636 317.08 154.317 282.432L164.438 292.553C164.438 292.553 149.169 314.415 137.128 326.455C125.088 338.496 103.109 353.882 103.109 353.882Z" fill="#4CAA96"/>
<path d="M94.9742 342.053L105.283 352.362" stroke="#B4D4CC"/>
<path d="M97.2835 340.444L107.591 350.751" stroke="#B4D4CC"/>
<path d="M99.6772 338.749L109.985 349.056" stroke="#B4D4CC"/>
<path d="M102.071 337.054L112.379 347.362" stroke="#B4D4CC"/>
<path d="M104.115 335.01L114.423 345.317" stroke="#B4D4CC"/>
<path d="M106.509 333.315L116.817 343.622" stroke="#B4D4CC"/>
<path d="M108.903 331.62L119.21 341.928" stroke="#B4D4CC"/>
<path d="M111.296 329.925L121.604 340.233" stroke="#B4D4CC"/>
<path d="M113.341 327.881L123.648 338.188" stroke="#B4D4CC"/>
<path d="M115.734 326.186L126.042 336.494" stroke="#B4D4CC"/>
<path d="M118.119 323.801L128.427 334.109" stroke="#B4D4CC"/>
<path d="M121.194 321.425L131.502 331.732" stroke="#B4D4CC"/>
<path d="M123.92 318.699L134.228 329.007" stroke="#B4D4CC"/>
<path d="M126.646 315.973L136.954 326.281" stroke="#B4D4CC"/>
<path d="M129.031 313.588L139.339 323.896" stroke="#B4D4CC"/>
<path d="M132.097 310.522L142.405 320.829" stroke="#B4D4CC"/>
<path d="M134.474 307.447L144.781 317.754" stroke="#B4D4CC"/>
<path d="M137.199 304.721L147.507 315.029" stroke="#B4D4CC"/>
<path d="M139.576 301.646L149.883 311.953" stroke="#B4D4CC"/>
<path d="M141.952 298.571L152.26 308.878" stroke="#B4D4CC"/>
<path d="M144.328 295.495L154.636 305.803" stroke="#B4D4CC"/>
<path d="M146.355 292.071L156.663 302.379" stroke="#B4D4CC"/>
<path d="M148.731 288.996L159.039 299.303" stroke="#B4D4CC"/>
<path d="M151.108 285.921L161.415 296.228" stroke="#B4D4CC"/>
<path d="M153.143 283.186L163.451 293.494" stroke="#B4D4CC"/>
</g>
<defs>
<filter id="filter0_d" x="-4" y="0" width="645.99" height="645.99" filterUnits="userSpaceOnUse" color-interpolation-filters="sRGB">
<feFlood flood-opacity="0" result="BackgroundImageFix"/>
<feColorMatrix in="SourceAlpha" type="matrix" values="0 0 0 0 0 0 0 0 0 0 0 0 0 0 0 0 0 0 127 0"/>
<feOffset dy="4"/>
<feGaussianBlur stdDeviation="2"/>
<feColorMatrix type="matrix" values="0 0 0 0 0 0 0 0 0 0 0 0 0 0 0 0 0 0 0.25 0"/>
<feBlend mode="normal" in2="BackgroundImageFix" result="effect1_dropShadow"/>
<feBlend mode="normal" in="SourceGraphic" in2="effect1_dropShadow" result="shape"/>
</filter>
<linearGradient id="paint0_linear" x1="150.988" y1="150.988" x2="487.002" y2="487.002" gradientUnits="userSpaceOnUse">
<stop offset="0.413947" stop-color="#81D5DC"/>
<stop offset="1" stop-color="white" stop-opacity="0"/>
</linearGradient>
</defs>
</svg>
